

Cover:
 
http://ia.media-imdb.com/images/M/MV5BNzkxNjAwMDkwOF5BMl5BanBnXkFtZTcwMTQ1NDkwOA@@._V1._SY317_.jpg

Release info:

General
Format                                   : Matroska
Format version                           : Version 2
File size                                : 692 MiB
Duration                                 : 1h 27mn
Overall bit rate                         : 1 109 Kbps


Video
ID                                       : 1
Format                                   : MPEG-4 Visual
Format profile                           : Advanced Simple@L5
Format settings, BVOP                    : Yes
Format settings, QPel                    : No
Format settings, GMC                     : No warppoints
Format settings, Matrix                  : Default (MPEG)
Codec ID                                 : V_MS/VFW/FOURCC / XVID
Codec ID/Hint                            : XviD
Duration                                 : 1h 27mn
Bit rate                                 : 959 Kbps
Width                                    : 640 pixels
Height                                   : 272 pixels
Display aspect ratio                     : 2.35:1
Frame rate mode                          : Constant
Frame rate                               : 25.000 fps
Color space                              : YUV
Chroma subsampling                       : 4:2:0
Bit depth                                : 8 bits
Scan type                                : Progressive
Compression mode                         : Lossy
Bits/(Pixel*Frame)                       : 0.220
Stream size                              : 599 MiB (86%)
Language                                 : English
Default                                  : Yes
Forced                                   : No

Audio
ID                                       : 2
Format                                   : MPEG Audio
Format version                           : Version 1
Format profile                           : Layer 3
Mode                                     : Joint stereo
Mode extension                           : MS Stereo
Muxing mode                              : Header stripping
Codec ID                                 : A_MPEG/L3
Codec ID/Hint                            : MP3
Duration                                 : 1h 27mn
Bit rate mode                            : Constant
Bit rate                                 : 128 Kbps
Channel(s)                               : 2 channels
Sampling rate                            : 44.1 KHz
Compression mode                         : Lossy
Stream size                              : 79.9 MiB (12%)
Writing library                          : LAME3.98.2
Language                                 : English
Default                                  : Yes
Forced                                   : No


Source:
credit to original movie ripper PSiG (Thanks)

IMDB Info:

In Manhattan, a bike messenger picks up an envelope that attracts the interest of a dirty cop, who pursues the cyclist throughout the city.

Director: David Koepp
Writers: David Koepp, John Kamps
Stars: Joseph Gordon-Levitt, Michael Shannon and Dania Ramirez 

Genres: Action | Thriller

 
http://www.imdb.com/title/tt1547234/

Screen Shot:
 
http://www.shotpix.com/images/25791875143168609680.png 
http://www.shotpix.com/images/62267307175621056202.png 
http://www.shotpix.com/images/00701302678958699733.png 
http://www.shotpix.com/images/14273525523875119272.png 
http://www.shotpix.com/images/39154791964698388094.png 
http://www.shotpix.com/images/73929572369688004683.png